<?xml version="1.0" encoding="UTF-8"?>
<svg id="Layer_1" data-name="Layer 1" xmlns="http://www.w3.org/2000/svg" viewBox="0 0 1871.47 607.64">
  <g>
    <path d="M410.89,300.31c-4.5-1.33-9-2.67-13.5-4.01-2.79-.83-5.59-1.66-8.38-2.49-14.83-4.41-29.67-8.76-44.47-13.24-4.51-1.36-9-2.79-13.68-3.22h-.01c-.86-.08-1.73-.13-2.61-.13-20.41-.08-40.81-.04-61.22-.08-1.07,0-1.58.45-1.95,1.38-1.81,4.64-3.64,9.27-5.52,13.89-.78,1.92-1.74,3.77-2.51,5.7-.87,2.2-.73,4.41.78,6.25,1.83,2.25,4.32,3.05,7.26,3.04,9.18-.04,18.35-.05,27.53-.05s18.45,0,27.67.04c1.32,0,2.64.06,3.96.15h.01c.08,0,.16.02.24.02h101.88c1.51,0,1.82-2.13.37-2.56-5.28-1.56-10.57-3.12-15.85-4.69Z" style="stroke-width: 0px;"/>
    <path d="M649.97,336.5c-.18,5.26-.97,10.27-2.83,14.94-1.18,2.97-2.79,5.8-4.96,8.47-1.58,1.93-3.15,3.87-4.86,5.65-1.88,1.98-3.93,3.77-6.33,5.19-1.23.72-2.46,1.46-3.71,2.17h-.02c-2.26,1.31-4.54,2.56-6.92,3.6-9.58,4.19-19.78,5.75-30.12,6.15-.63.03-.79.38-10.09.38h-2.37c-22.45.01-44.92.01-67.37.01-3.74-.03-7.48-.02-11.22,0t-.02,0h-.01c-.1-.01-.21-.01-.31,0h-22.09c-29.35-.03-115.34-.04-115.34-.04v.02c-.47,0-.94,0-1.41,0-2.73,0-5.45,0-8.17,0-15.34-.03-30.68-.04-46.02.02-.27,0-.54,0-.79-.02-14.82-.03-67.85-.43-67.85-.43-1.49-.45-2.8-1.27-3.88-2.59-1.5-1.84-1.65-4.05-.77-6.24.77-1.93,3.01-6.82,3.01-6.82,1.54-3.81,3.05-7.63,4.56-11.45.3-.77.6-1.54.9-2.31.37-.93.88-1.38,1.95-1.37h3.68c10.64.01,21.29.02,31.94.03,1.32,0,2.65.01,3.97.01h.01s.1-.03.15-.04h.06c5.31.01,10.61.01,15.92.02-.04,0-.08,0-.11,0,1.32,0,2.65.01,3.97.01h.01s.05-.01.08-.02c6.93,0,13.87,0,20.8.03h131.17v-.05h3.38c3.19,0,6.38-.01,9.56-.01,6.38-.01,122.13-.39,122.13-.39,2.18-.17,4.36-.43,6.52-.75,6.4-.96,11.25-4.63,14.34-10.1,3.91-6.92,3.69-13.9-1.05-20.63-3.29-4.65-7.61-7.63-13.01-9.18-8.24-2.38-16.7-3.18-25.22-3.19-18-.03-36.01-.04-54.02-.04l-3.03-.87-24.98-7.22-11.26-3.26h-.02c-8.57-2.47-17.16-4.94-25.73-7.43-3.86-1.11-7.72-2.23-11.58-3.36-3.45-1-6.9-2.01-10.35-3.01-3.09-.9-6.17-1.82-9.26-2.74-.79-.23-1.75-.37-1.56-1.54.2-1.17,1.19-.95,2-.95,15.65,0,31.31,0,46.96,0,25.4,0,50.8,0,76.21-.04,8.52-.01,16.98-.82,25.22-3.19,5.4-1.56,9.72-4.53,13.01-9.19,4.74-6.72,4.96-13.7,1.05-20.62-.2-.36-.42-.72-.64-1.06-3.1-4.89-7.72-8.14-13.7-9.04-3.81-.58-7.67-.93-11.52-1-8.07-.15-16.14-.04-24.22-.05-6.84,0-13.67,0-20.51-.02-27.32-.03-54.64-.06-81.96-.09h-3.38v-.05h-134.92c-2.56,0-2.77-.31-1.81-2.72,1.81-4.59,3.52-9.22,5.49-13.74,1.33-3.05,2.71-6.17,4.62-8.86,2.87-4.03,7.2-5.82,12.09-5.82,73.36-.03,146.72-.04,220.08-.02,10.03,0,20.07-.01,30.09.37,10.34.4,20.54,1.97,30.12,6.16,2.38,1.04,4.67,2.28,6.92,3.59,1.25.71,2.49,1.45,3.73,2.18,4.58,2.7,7.87,6.77,11.19,10.84,1.9,2.33,3.37,4.78,4.5,7.35,2.19,4.99,3.09,10.38,3.29,16.06.33,9.68-1.22,18.94-6.05,27.4-1.48,2.6-3.09,5.11-4.9,7.47,7.42,2.68,14.19,6.6,20.23,11.73,4.7,4.01,8.27,8.99,11.29,14.29,4.83,8.46,6.38,17.71,6.05,27.4Z" style="stroke-width: 0px;"/>
  </g>
  <g>
    <path d="M864.74,234.76c-48.32,0-96.64,0-144.96,0-2.75,0-2.97-.33-1.95-2.88,1.95-4.85,3.79-9.74,5.9-14.52,1.43-3.23,2.91-6.52,4.97-9.37,3.08-4.26,7.73-6.15,12.99-6.15,78.82-.04,157.64-.05,236.45-.03,10.78,0,21.56,0,32.32.4,11.11.42,22.08,2.08,32.37,6.5,3.96,1.7,7.7,3.94,11.44,6.1,4.93,2.85,8.46,7.15,12.03,11.46,6,7.24,8.05,15.64,8.37,24.75.36,10.24-1.3,20.03-6.5,28.97-3.25,5.6-7.08,10.87-12.13,15.1-6.86,5.75-14.6,10.04-23.13,12.89-8.14,2.72-16.53,4.46-25.13,4.67-15.5.39-31,.52-46.51.68-1.6.02-3.25-.3-4.79-.74-9.98-2.8-19.93-5.69-29.9-8.53-11.93-3.4-23.87-6.77-35.81-10.17-7.86-2.23-15.71-4.48-23.56-6.73-3.32-.95-6.63-1.93-9.95-2.9-.85-.25-1.89-.4-1.68-1.63.21-1.24,1.28-1,2.14-1,44.11,0,88.23.03,132.34-.04,9.15-.01,18.24-.86,27.1-3.37,5.8-1.64,10.44-4.79,13.97-9.71,5.09-7.11,5.34-14.49,1.13-21.8-3.32-5.79-8.54-9.66-15.41-10.68-4.09-.6-8.24-.98-12.37-1.06-8.67-.16-17.35-.04-26.03-.05-36.7-.04-73.4-.07-110.1-.11-1.21,0-2.42,0-3.63,0,0-.02,0-.04,0-.05Z" style="stroke-width: 0px;"/>
    <path d="M1056.23,382.87c-16.51,0-33.02.1-49.53-.09-2.95-.03-5.93-1.11-8.83-1.94-12.13-3.47-24.22-7.04-36.34-10.57-11.66-3.39-23.33-6.76-34.99-10.16-11.91-3.47-23.82-6.97-35.73-10.44-11.86-3.46-23.73-6.89-35.6-10.35-11.81-3.43-23.62-6.88-35.43-10.31-11.76-3.42-23.51-6.87-35.28-10.26-6.59-1.9-13.14-4.01-20.03-4.65-2.82-.26-5.66-.52-8.49-.52-19.77-.04-39.54-.06-59.31.01-3.16.01-5.83-.84-7.8-3.21-1.62-1.95-1.77-4.28-.83-6.6.83-2.04,1.86-4,2.7-6.03,2.01-4.88,3.98-9.78,5.93-14.68.39-.99.94-1.46,2.09-1.46,21.93.04,43.85,0,65.78.08,6.04.02,11.77,1.83,17.51,3.54,15.91,4.73,31.85,9.34,47.78,13.99,7.84,2.29,15.68,4.59,23.52,6.87,11.91,3.47,23.82,6.94,35.74,10.41,11.66,3.4,23.31,6.8,34.97,10.2,12.01,3.51,24.02,7.02,36.04,10.53,11.5,3.37,23,6.74,34.51,10.1,12.01,3.51,24.02,7,36.03,10.5,11.66,3.4,23.33,6.81,34.99,10.21,12.01,3.5,24.02,7.01,36.03,10.51,1.96.57,3.92,1.15,5.88,1.7.84.23,1.74.46,1.61,1.55-.14,1.12-1.08,1.05-1.95,1.05-16.98,0-33.97,0-50.95,0Z" style="stroke-width: 0px;"/>
  </g>
  <g>
    <path d="M1267.36,266.96c.79,1.19,1,2.67.57,4.03h0c-1.11,3.48-2.21,6.95-3.32,10.44-2.62,8.27-5.26,16.53-7.88,24.8-.68,2.11-1.35,4.21-2.02,6.32-3.08,9.68-6.18,19.37-9.26,29.06-1.05,3.31-2.1,6.62-3.14,9.93-2.71,8.54-5.41,17.08-8.12,25.62-.2.62-.4,1.24-.6,1.87-.62,1.94-2.42,3.26-4.45,3.26-10.48.03-20.98,0-31.46-.01h-4.18c-18.12,0-36.25,0-54.37.01-.93,0-1.93.07-2.08-1.05-.14-1.08.82-1.3,1.72-1.54,2.09-.55,4.18-1.11,6.27-1.69,12.82-3.49,25.64-6.97,38.45-10.47,6.06-1.65,12.12-3.29,18.17-4.94,1.53-.42,2.75-1.58,3.23-3.1.26-.81.51-1.62.77-2.43,3.67-11.6,7.35-23.19,11.04-34.78,1.46-4.6,2.92-9.19,4.38-13.79,2.31-7.25,4.61-14.5,6.91-21.75,1.05-3.35,2.12-6.68,3.18-10.03,1.41-4.45,2.81-8.91,4.23-13.38,2.79-8.8,8.55-26.95,9.42-29.71.04-.14.23-.16.31-.04l22.23,33.36Z" style="stroke-width: 0px;"/>
    <path d="M1639.49,381.09c-.15,1.11-1.15,1.04-2.08,1.04-18.12-.01-36.26-.01-54.38-.01h-4.17c-10.71,0-21.43.04-32.15.01-1.63,0-3.07-1.06-3.57-2.62-.27-.84-.53-1.67-.8-2.51-2.71-8.54-5.41-17.08-8.12-25.62-1.05-3.31-2.09-6.62-3.14-9.93-3.08-9.69-6.18-19.38-9.26-29.06-.68-2.11-1.35-4.21-2.02-6.32-2.63-8.27-5.26-16.53-7.89-24.8-1.11-3.49-2.21-6.96-3.32-10.44-2.36-7.45-4.72-14.9-7.09-22.35-.96-3-4.97-3.56-6.7-.94-5.29,7.99-10.56,16-15.84,24-2.15,3.25-4.29,6.49-6.44,9.75-4.74,7.18-9.48,14.36-14.22,21.54-.84,1.27-1.67,2.52-2.5,3.78-4.37,6.6-8.73,13.19-13.09,19.79-1.72,2.62-3.45,5.23-5.18,7.85-4.35,6.57-8.67,13.15-13,19.73h0c-1.48,2.24-4.76,2.24-6.25,0l-15.24-22.86c-.84-1.25-.84-2.89,0-4.14,2.12-3.22,4.25-6.44,6.37-9.65,1.92-2.91,3.84-5.83,5.76-8.73,2.39-3.63,4.79-7.25,7.18-10.88,3.62-5.48,7.23-10.95,10.83-16.42.94-1.42,1.88-2.84,2.82-4.26,4.57-6.93,9.14-13.86,13.69-20.8,4.72-7.16,9.46-14.32,14.19-21.49,4.55-6.91,9.1-13.82,13.61-20.75,2.48-3.79,4.91-7.62,7.96-11,.69-.77,1.7-1.19,2.74-1.19h11.5c6.3,0,12.6,0,18.89.06l3.38,2.17c1.74,3.72,2.92,7.66,4.15,11.58,2,6.47,4.04,12.93,6.09,19.38,2.97,9.39,5.96,18.78,8.93,28.18,1.42,4.46,2.83,8.92,4.24,13.37,1.06,3.35,2.12,6.68,3.18,10.03,2.3,7.25,4.6,14.5,6.91,21.75,1.46,4.6,2.92,9.19,4.38,13.79,3.68,11.59,7.37,23.18,11.04,34.78,0,.02.01.03.02.05.94,3,3.35,5.31,6.39,6.14,5.26,1.43,10.51,2.86,15.76,4.29,12.82,3.5,25.64,6.98,38.46,10.47,2.09.58,4.18,1.14,6.27,1.69.9.24,1.86.46,1.72,1.55Z" style="stroke-width: 0px;"/>
    <path d="M1408.11,378.87l-.12.18c-3.9,5.89-7.79,11.78-11.69,17.66-1.27,1.91-3.17,4.77-4.81,7.24-1.82,2.73-4.78,2.72-6.59-.02-1.55-2.36-3.11-4.71-4.66-7.06-3.9-5.89-7.79-11.77-11.69-17.66-2.91-4.4-5.83-8.8-8.74-13.21-2.6-3.96-5.21-7.9-7.81-11.85-4.33-6.59-8.66-13.16-13-19.73-1.73-2.62-3.46-5.23-5.19-7.85-.9-1.37-1.8-2.73-2.71-4.1-.04-.07-.08-.15-.13-.23l-1.91-2.86c-2.78-4.2-5.55-8.4-8.33-12.6-.83-1.26-1.67-2.52-2.5-3.78-4.75-7.18-9.49-14.36-14.22-21.54-2.15-3.26-4.29-6.5-6.44-9.75-.63-.95-1.32-2-2.04-3.09-.22-.34-.44-.67-.67-1.01-5.8-8.81-11.6-17.64-17.45-26.42-.05.16-.1.31-.15.47l-22.42-33.64c-.74-1.11-.85-2.52-.29-3.73,0-.01.01-.03.02-.04,1.24-.8,2.2-1.41,3.44-2.21,6.27-.06,12.56-.06,18.84-.06h11.48c1.06,0,2.08.42,2.79,1.21,3.04,3.38,5.46,7.2,7.93,10.98,4.52,6.93,9.06,13.84,13.62,20.75,4.28,6.5,8.58,12.98,12.85,19.47.16.24.28.51.39.78.2.51.45,1.01.76,1.49l32.87,49.31c.61.93,1.23,1.86,1.84,2.79,1.92,2.9,3.84,5.82,5.76,8.73,4.87,7.39,9.75,14.77,14.61,22.16,1.2,1.81,2.38,3.61,3.58,5.42.07.11.28.42.58.87.06.09.13.2.2.3.68,1.06,1.39,2.12,2.08,3.18.01-.01.02-.03.03-.04,6.17,9.15,19.9,29.48,19.9,29.48Z" style="stroke-width: 0px;"/>
  </g>
</svg>